<svg xmlns="http://www.w3.org/2000/svg" width="48" height="48" viewBox="0 0 48 48" fill="none">
<circle cx="24" cy="24" r="24" fill="#2B2B2B"/>
<path d="M30.2981 30.2617C28.8143 31.6244 26.8552 32.3797 24.7053 32.3797C19.9659 32.3797 16.4855 28.8242 16.4855 23.9426C16.4855 19.0609 19.8552 15.6551 24.7053 15.6551C26.8177 15.6551 28.8143 16.3738 30.3356 17.7365L31.3697 18.645L35.9642 13.953L34.8143 12.8931C32.1107 10.3992 28.5213 9 24.7036 9C16.1857 9 10 15.2792 10 23.906C10 32.4963 16.3339 39 24.7036 39C28.5928 39 32.2198 37.6008 34.8893 35.0668L36 34.007L31.3339 29.3185L30.2981 30.2617Z" fill="white"/>
<path d="M24.9983 19C27.7611 19 30 21.2355 30 24C30 26.7611 27.7611 29 24.9983 29C22.2372 29 20 26.7611 20 24C20.0017 21.2372 22.2389 19 24.9983 19Z" fill="#FF3D2E"/>
</svg>