<?xml version="1.0" standalone="no"?>
<!DOCTYPE svg PUBLIC "-//W3C//DTD SVG 20010904//EN"
 "http://www.w3.org/TR/2001/REC-SVG-20010904/DTD/svg10.dtd">
<svg version="1.0" xmlns="http://www.w3.org/2000/svg"
 width="866.000000pt" height="650.000000pt" viewBox="0 0 866.000000 650.000000"
 preserveAspectRatio="xMidYMid meet">

<g transform="translate(0.000000,650.000000) scale(0.100000,-0.100000)"
fill="#000000" stroke="none">
<path d="M4025 5584 c-406 -55 -782 -209 -1115 -458 -204 -152 -441 -414 -583
-644 -362 -585 -445 -1310 -226 -1977 78 -235 246 -541 410 -742 309 -378 764
-668 1237 -787 802 -202 1646 26 2231 603 469 463 717 1082 698 1741 -23 772
-406 1462 -1052 1895 -209 141 -540 281 -785 334 -240 51 -587 66 -815 35z
m90 -1459 l370 -495 21 23 c12 12 106 114 210 227 104 113 300 325 437 473
l248 267 126 0 125 0 -27 -32 c-15 -18 -136 -150 -269 -293 -133 -143 -352
-379 -486 -524 -135 -145 -250 -271 -256 -280 -10 -14 80 -139 577 -804 324
-433 589 -790 589 -792 0 -3 -193 -5 -430 -5 l-430 0 -401 534 -400 534 -192
-206 c-105 -114 -328 -354 -495 -534 l-304 -328 -125 0 -126 0 19 22 c15 17
783 849 1047 1134 31 34 57 64 57 67 0 5 -1028 1384 -1113 1495 -7 9 79 12
425 12 l434 0 369 -495z"/>
<path d="M3266 4418 c5 -7 262 -353 573 -768 310 -415 701 -938 868 -1162
l305 -408 199 0 199 0 -318 424 c-174 233 -569 762 -877 1174 l-560 751 -198
0 c-156 1 -197 -2 -191 -11z"/>
</g>
</svg>
